HIERARCHY
ROOT Hips
{
  OFFSET -14.983 27.831 -222.231
  CHANNELS 6 Xposition Yposition Zposition Zrotation Xrotation Yrotation
  JOINT LeftUpLeg
  {
    OFFSET 7.982 -6.241 3.949
    CHANNELS 6 Xposition Yposition Zposition Zrotation Xrotation Yrotation
    JOINT LeftLeg
    {
      OFFSET 0.000 -49.992 0.000
      CHANNELS 6 Xposition Yposition Zposition Zrotation Xrotation Yrotation
      JOINT LeftFoot
      {
        OFFSET -0.000 -41.314 -0.000
        CHANNELS 6 Xposition Yposition Zposition Zrotation Xrotation Yrotation
        End Site
        {
          OFFSET 0.000 -8.360 4.827
        }
      }
    }
  }
  JOINT RightUpLeg
  {
    OFFSET -7.548 -7.022 4.120
    CHANNELS 6 Xposition Yposition Zposition Zrotation Xrotation Yrotation
    JOINT RightLeg
    {
      OFFSET 0.000 -49.292 0.000
      CHANNELS 6 Xposition Yposition Zposition Zrotation Xrotation Yrotation
      JOINT RightFoot
      {
        OFFSET -0.000 -42.862 -0.000
        CHANNELS 6 Xposition Yposition Zposition Zrotation Xrotation Yrotation
        End Site
        {
          OFFSET 0.000 -8.184 4.725
        }
      }
    }
  }
  JOINT Spine
  {
    OFFSET 0.000 5.223 -5.223
    CHANNELS 6 Xposition Yposition Zposition Zrotation Xrotation Yrotation
    JOINT LeftShoulder
    {
      OFFSET -0.000 33.359 0.000
      CHANNELS 6 Xposition Yposition Zposition Zrotation Xrotation Yrotation
      JOINT LeftArm
      {
        OFFSET 18.426 0.000 -0.000
        CHANNELS 6 Xposition Yposition Zposition Zrotation Xrotation Yrotation
        JOINT LeftForeArm
        {
          OFFSET 24.208 0.000 0.000
          CHANNELS 6 Xposition Yposition Zposition Zrotation Xrotation Yrotation
          JOINT LeftHand
          {
            OFFSET 25.469 -0.000 -0.000
            CHANNELS 6 Xposition Yposition Zposition Zrotation Xrotation Yrotation
            JOINT LeftHandThumb1
            {
            OFFSET 4.970 -0.620 3.390
            CHANNELS 6 Xposition Yposition Zposition Zrotation Xrotation Yrotation
              JOINT LeftHandThumb2
              {
              OFFSET 2.150 -0.000 0.000
              CHANNELS 6 Xposition Yposition Zposition Zrotation Xrotation Yrotation
                JOINT LeftHandThumb3
                {
                OFFSET 2.200 -0.000 0.000
                CHANNELS 6 Xposition Yposition Zposition Zrotation Xrotation Yrotation
                  JOINT LeftHandThumb4
                  {
                  OFFSET 1.700 -0.000 0.000
                  CHANNELS 6 Xposition Yposition Zposition Zrotation Xrotation Yrotation
                  }
                }
              }
            }
            JOINT LeftHandIndex1
            {
            OFFSET 8.730 0.680 2.070
            CHANNELS 6 Xposition Yposition Zposition Zrotation Xrotation Yrotation
              JOINT LeftHandIndex2
              {
              OFFSET 2.670 -0.000 0.000
              CHANNELS 6 Xposition Yposition Zposition Zrotation Xrotation Yrotation
                JOINT LeftHandIndex3
                {
                OFFSET 2.130 -0.000 0.000
                CHANNELS 6 Xposition Yposition Zposition Zrotation Xrotation Yrotation
                  JOINT LeftHandIndex4
                  {
                  OFFSET 1.800 -0.000 0.000
                  CHANNELS 6 Xposition Yposition Zposition Zrotation Xrotation Yrotation
                  }
                }
              }
            }
            JOINT LeftHandMiddle1
            {
            OFFSET 9.220 0.670 0.550
            CHANNELS 6 Xposition Yposition Zposition Zrotation Xrotation Yrotation
              JOINT LeftHandMiddle2
              {
              OFFSET 2.660 -0.000 0.000
              CHANNELS 6 Xposition Yposition Zposition Zrotation Xrotation Yrotation
                JOINT LeftHandMiddle3
                {
                OFFSET 2.280 -0.000 0.000
                CHANNELS 6 Xposition Yposition Zposition Zrotation Xrotation Yrotation
                  JOINT LeftHandMiddle4
                  {
                  OFFSET 1.500 -0.000 0.000
                  CHANNELS 6 Xposition Yposition Zposition Zrotation Xrotation Yrotation
                  }
                }
              }
            }
            JOINT LeftHandRing1
            {
            OFFSET 9.250 0.670 -1.130
            CHANNELS 6 Xposition Yposition Zposition Zrotation Xrotation Yrotation
              JOINT LeftHandRing2
              {
              OFFSET 2.470 -0.000 0.000
              CHANNELS 6 Xposition Yposition Zposition Zrotation Xrotation Yrotation
                JOINT LeftHandRing3
                {
                OFFSET 2.210 -0.000 0.000
                CHANNELS 6 Xposition Yposition Zposition Zrotation Xrotation Yrotation
                  JOINT LeftHandRing4
                  {
                  OFFSET 1.800 -0.000 0.000
                  CHANNELS 6 Xposition Yposition Zposition Zrotation Xrotation Yrotation
                  }
                }
              }
            }
            JOINT LeftHandPinky1
            {
            OFFSET 9.350 0.660 -2.720
            CHANNELS 6 Xposition Yposition Zposition Zrotation Xrotation Yrotation
              JOINT LeftHandPinky2
              {
              OFFSET 1.630 -0.000 0.000
              CHANNELS 6 Xposition Yposition Zposition Zrotation Xrotation Yrotation
                JOINT LeftHandPinky3
                {
                OFFSET 1.710 -0.000 0.000
                CHANNELS 6 Xposition Yposition Zposition Zrotation Xrotation Yrotation
                  JOINT LeftHandPinky4
                  {
                  OFFSET 1.800 -0.000 0.000
                  CHANNELS 6 Xposition Yposition Zposition Zrotation Xrotation Yrotation
                  }
                }
              }
            }
          }
        }
      }
    }
    JOINT RightShoulder
    {
      OFFSET -0.000 33.359 0.000
      CHANNELS 6 Xposition Yposition Zposition Zrotation Xrotation Yrotation
      JOINT RightArm
      {
        OFFSET -19.752 0.000 -0.000
        CHANNELS 6 Xposition Yposition Zposition Zrotation Xrotation Yrotation
        JOINT RightForeArm
        {
          OFFSET -21.560 0.000 0.000
          CHANNELS 6 Xposition Yposition Zposition Zrotation Xrotation Yrotation
          JOINT RightHand
          {
            OFFSET -26.162 0.000 -0.000
            CHANNELS 6 Xposition Yposition Zposition Zrotation Xrotation Yrotation
            JOINT RightHandThumb1
            {
            OFFSET -4.970 -0.620 3.390
            CHANNELS 6 Xposition Yposition Zposition Zrotation Xrotation Yrotation
              JOINT RightHandThumb2
              {
              OFFSET -2.150 0.000 0.000
              CHANNELS 6 Xposition Yposition Zposition Zrotation Xrotation Yrotation
                JOINT RightHandThumb3
                {
                OFFSET -2.200 0.000 0.000
                CHANNELS 6 Xposition Yposition Zposition Zrotation Xrotation Yrotation
                  JOINT RightHandThumb4
                  {
                  OFFSET -1.700 0.000 0.000
                  CHANNELS 6 Xposition Yposition Zposition Zrotation Xrotation Yrotation
                  }
                }
              }
            }
            JOINT RightHandIndex1
            {
            OFFSET -8.730 0.680 2.070
            CHANNELS 6 Xposition Yposition Zposition Zrotation Xrotation Yrotation
              JOINT RightHandIndex2
              {
              OFFSET -2.670 0.000 0.000
              CHANNELS 6 Xposition Yposition Zposition Zrotation Xrotation Yrotation
                JOINT RightHandIndex3
                {
                OFFSET -2.130 0.000 0.000
                CHANNELS 6 Xposition Yposition Zposition Zrotation Xrotation Yrotation
                  JOINT RightHandIndex4
                  {
                  OFFSET -1.800 0.000 0.000
                  CHANNELS 6 Xposition Yposition Zposition Zrotation Xrotation Yrotation
                  }
                }
              }
            }
            JOINT RightHandMiddle1
            {
            OFFSET -9.220 0.670 0.550
            CHANNELS 6 Xposition Yposition Zposition Zrotation Xrotation Yrotation
              JOINT RightHandMiddle2
              {
              OFFSET -2.660 0.000 0.000
              CHANNELS 6 Xposition Yposition Zposition Zrotation Xrotation Yrotation
                JOINT RightHandMiddle3
                {
                OFFSET -2.280 0.000 0.000
                CHANNELS 6 Xposition Yposition Zposition Zrotation Xrotation Yrotation
                  JOINT RightHandMiddle4
                  {
                  OFFSET -1.500 0.000 0.000
                  CHANNELS 6 Xposition Yposition Zposition Zrotation Xrotation Yrotation
                  }
                }
              }
            }
            JOINT RightHandRing1
            {
            OFFSET -9.250 0.670 -1.130
            CHANNELS 6 Xposition Yposition Zposition Zrotation Xrotation Yrotation
              JOINT RightHandRing2
              {
              OFFSET -2.470 0.000 0.000
              CHANNELS 6 Xposition Yposition Zposition Zrotation Xrotation Yrotation
                JOINT RightHandRing3
                {
                OFFSET -2.210 0.000 0.000
                CHANNELS 6 Xposition Yposition Zposition Zrotation Xrotation Yrotation
                  JOINT RightHandRing4
                  {
                  OFFSET -1.800 0.000 0.000
                  CHANNELS 6 Xposition Yposition Zposition Zrotation Xrotation Yrotation
                  }
                }
              }
            }
            JOINT RightHandPinky1
            {
            OFFSET -9.350 0.660 -2.720
            CHANNELS 6 Xposition Yposition Zposition Zrotation Xrotation Yrotation
              JOINT RightHandPinky2
              {
              OFFSET -1.630 0.000 0.000
              CHANNELS 6 Xposition Yposition Zposition Zrotation Xrotation Yrotation
                JOINT RightHandPinky3
                {
                OFFSET -1.710 0.000 0.000
                CHANNELS 6 Xposition Yposition Zposition Zrotation Xrotation Yrotation
                  JOINT RightHandPinky4
                  {
                  OFFSET -1.800 0.000 0.000
                  CHANNELS 6 Xposition Yposition Zposition Zrotation Xrotation Yrotation
                  }
                }
              }
            }
          }
        }
      }
    }
    JOINT Neck
    {
      OFFSET -0.000 33.359 0.000
      CHANNELS 6 Xposition Yposition Zposition Zrotation Xrotation Yrotation
      JOINT Head
      {
        OFFSET -0.000 21.651 -0.000
        CHANNELS 6 Xposition Yposition Zposition Zrotation Xrotation Yrotation
        End Site
        {
          OFFSET -0.000 0.087 -0.000
        }
      }
    }
  }
}
MOTION
Frames:	5
Frame Time:	0.0333333
24.2642 29.8654 -231.933 0.0153387 6.14819 -4.51716 7.27578 -7.28349 1.94194 5.76105 -6.57975 -1.25686 -5.21541e-06 -50.4175 0 -5.93914 8.61956 0.893245 -1.49012e-06 -39.8665 2.38419e-05 14.0383 -9.21056 10.4913 -7.10582 -7.72274 1.50881 -4.994 -5.97956 -2.43149 -1.49012e-06 -51.8069 7.15256e-05 -0.169913 10.4578 0.0308422 -2.23517e-06 -39.2724 -9.53674e-05 -2.40389 -19.9444 -2.10757 -7.45058e-07 6.1059 -6.1059 0.272198 -3.79988 -0.293516 4.47035e-06 33.3591 0 -21.6187 1.10991e-05 -2.05654 18.6379 -1.78814e-05 -4.76837e-05 -48.09 32.9301 -0.484746 23.023 0 4.76837e-05 7.84111e-05 1.70755e-06 -77.4525 23.5572 1.19209e-05 -8.9407e-06 -2.75168 -0.0622665 -1.94563 0.0062 0.0497 0.0339 0 0 0 0 0.0215 0 0 0 0 0 0.022 0 0 0 0 0 0.017 0 0 0 0 -0.0068 0.0873 0.0207 0 0 0 0 0.0267 0 0 0 0 0 0.0213 0 0 0 0 0 0.018 0 0 0 0 -0.0067 0.0922 0.0055 0 0 0 0 0.0266 0 0 0 0 0 0.0228 0 0 0 0 0 0.015 0 0 0 0 -0.0067 0.0925 -0.0113 0 0 0 0 0.0247 0 0 0 0 0 0.0221 0 0 0 0 0 0.018 0 0 0 0 -0.0066 0.0935 -0.0272 0 0 0 0 0.0163 0 0 0 0 0 0.0171 0 0 0 0 0 0.018 0 0 0 0 4.47035e-06 33.3591 0 21.0469 -1.86763e-06 2.12023 -18.0782 0 -2.38419e-05 46.1253 43.6203 8.83144 -23.2346 -1.19209e-05 2.38419e-05 3.8927e-05 -1.19528e-05 77.7413 -24.7375 -2.38419e-05 -1.78814e-05 21.5379 0.271852 6.47851 -0.0062 0.0497 0.0339 0 0 0 0 0.0215 0 0 0 0 0 0.022 0 0 0 0 0 0.017 0 0 0 0 0.0068 0.0873 0.0207 0 0 0 0 0.0267 0 0 0 0 0 0.0213 0 0 0 0 0 0.018 0 0 0 0 0.0067 0.0922 0.0055 0 0 0 0 0.0266 0 0 0 0 0 0.0228 0 0 0 0 0 0.015 0 0 0 0 0.0067 0.0925 -0.0113 0 0 0 0 0.0247 0 0 0 0 0 0.0221 0 0 0 0 0 0.018 0 0 0 0 0.0066 0.0935 -0.0272 0 0 0 0 0.0163 0 0 0 0 0 0.0171 0 0 0 0 0 0.018 0 0 0 0 4.47035e-06 33.3591 0 3.54585 5.13943 -0.318038 -2.98023e-06 23.9858 -2.38419e-05 9.55159e-06 -1.06722e-05 8.53774e-07 
24.2642 29.8654 -231.933 0.0153387 6.14819 -4.51716 7.27578 -7.28349 1.94194 5.76105 -6.57975 -1.25686 -5.21541e-06 -50.4175 0 -5.93914 8.61956 0.893245 -1.49012e-06 -39.8665 2.38419e-05 14.0383 -9.21056 10.4913 -7.10582 -7.72274 1.50881 -4.994 -5.97956 -2.43149 -1.49012e-06 -51.8069 7.15256e-05 -0.169913 10.4578 0.0308422 -2.23517e-06 -39.2724 -9.53674e-05 -2.40389 -19.9444 -2.10757 -7.45058e-07 6.1059 -6.1059 0.272198 -3.79988 -0.293516 4.47035e-06 33.3591 0 -21.6187 1.10991e-05 -2.05654 18.6379 -1.78814e-05 -4.76837e-05 -48.09 32.9301 -0.484746 23.023 0 4.76837e-05 7.84111e-05 1.70755e-06 -77.4525 23.5572 1.19209e-05 -8.9407e-06 -2.75168 -0.0622665 -1.94563 0.0062 0.0497 0.0339 0 0 0 0 0.0215 0 0 0 0 0 0.022 0 0 0 0 0 0.017 0 0 0 0 -0.0068 0.0873 0.0207 0 0 0 0 0.0267 0 0 0 0 0 0.0213 0 0 0 0 0 0.018 0 0 0 0 -0.0067 0.0922 0.0055 0 0 0 0 0.0266 0 0 0 0 0 0.0228 0 0 0 0 0 0.015 0 0 0 0 -0.0067 0.0925 -0.0113 0 0 0 0 0.0247 0 0 0 0 0 0.0221 0 0 0 0 0 0.018 0 0 0 0 -0.0066 0.0935 -0.0272 0 0 0 0 0.0163 0 0 0 0 0 0.0171 0 0 0 0 0 0.018 0 0 0 0 4.47035e-06 33.3591 0 21.0469 -1.86763e-06 2.12023 -18.0782 0 -2.38419e-05 46.1253 43.6203 8.83144 -23.2346 -1.19209e-05 2.38419e-05 3.8927e-05 -1.19528e-05 77.7413 -24.7375 -2.38419e-05 -1.78814e-05 21.5379 0.271852 6.47851 -0.0062 0.0497 0.0339 0 0 0 0 0.0215 0 0 0 0 0 0.022 0 0 0 0 0 0.017 0 0 0 0 0.0068 0.0873 0.0207 0 0 0 0 0.0267 0 0 0 0 0 0.0213 0 0 0 0 0 0.018 0 0 0 0 0.0067 0.0922 0.0055 0 0 0 0 0.0266 0 0 0 0 0 0.0228 0 0 0 0 0 0.015 0 0 0 0 0.0067 0.0925 -0.0113 0 0 0 0 0.0247 0 0 0 0 0 0.0221 0 0 0 0 0 0.018 0 0 0 0 0.0066 0.0935 -0.0272 0 0 0 0 0.0163 0 0 0 0 0 0.0171 0 0 0 0 0 0.018 0 0 0 0 4.47035e-06 33.3591 0 3.54585 5.13943 -0.318038 -2.98023e-06 23.9858 -2.38419e-05 9.55159e-06 -1.06722e-05 8.53774e-07 
24.2642 29.8654 -231.933 0.0153387 6.14819 -4.51716 7.27578 -7.28349 1.94194 5.76105 -6.57975 -1.25686 -5.21541e-06 -50.4175 0 -5.93914 8.61956 0.893245 -1.49012e-06 -39.8665 2.38419e-05 14.0383 -9.21056 10.4913 -7.10582 -7.72274 1.50881 -4.994 -5.97956 -2.43149 -1.49012e-06 -51.8069 7.15256e-05 -0.169913 10.4578 0.0308422 -2.23517e-06 -39.2724 -9.53674e-05 -2.40389 -19.9444 -2.10757 -7.45058e-07 6.1059 -6.1059 0.272198 -3.79988 -0.293516 4.47035e-06 33.3591 0 -21.6187 1.10991e-05 -2.05654 18.6379 -1.78814e-05 -4.76837e-05 -48.09 32.9301 -0.484746 23.023 0 4.76837e-05 7.84111e-05 1.70755e-06 -77.4525 23.5572 1.19209e-05 -8.9407e-06 -2.75168 -0.0622665 -1.94563 0.0062 0.0497 0.0339 0 0 0 0 0.0215 0 0 0 0 0 0.022 0 0 0 0 0 0.017 0 0 0 0 -0.0068 0.0873 0.0207 0 0 0 0 0.0267 0 0 0 0 0 0.0213 0 0 0 0 0 0.018 0 0 0 0 -0.0067 0.0922 0.0055 0 0 0 0 0.0266 0 0 0 0 0 0.0228 0 0 0 0 0 0.015 0 0 0 0 -0.0067 0.0925 -0.0113 0 0 0 0 0.0247 0 0 0 0 0 0.0221 0 0 0 0 0 0.018 0 0 0 0 -0.0066 0.0935 -0.0272 0 0 0 0 0.0163 0 0 0 0 0 0.0171 0 0 0 0 0 0.018 0 0 0 0 4.47035e-06 33.3591 0 21.0469 -1.86763e-06 2.12023 -18.0782 0 -2.38419e-05 46.1253 43.6203 8.83144 -23.2346 -1.19209e-05 2.38419e-05 3.8927e-05 -1.19528e-05 77.7413 -24.7375 -2.38419e-05 -1.78814e-05 21.5379 0.271852 6.47851 -0.0062 0.0497 0.0339 0 0 0 0 0.0215 0 0 0 0 0 0.022 0 0 0 0 0 0.017 0 0 0 0 0.0068 0.0873 0.0207 0 0 0 0 0.0267 0 0 0 0 0 0.0213 0 0 0 0 0 0.018 0 0 0 0 0.0067 0.0922 0.0055 0 0 0 0 0.0266 0 0 0 0 0 0.0228 0 0 0 0 0 0.015 0 0 0 0 0.0067 0.0925 -0.0113 0 0 0 0 0.0247 0 0 0 0 0 0.0221 0 0 0 0 0 0.018 0 0 0 0 0.0066 0.0935 -0.0272 0 0 0 0 0.0163 0 0 0 0 0 0.0171 0 0 0 0 0 0.018 0 0 0 0 4.47035e-06 33.3591 0 3.54585 5.13943 -0.318038 -2.98023e-06 23.9858 -2.38419e-05 9.55159e-06 -1.06722e-05 8.53774e-07 
24.3088 29.8691 -231.902 -0.027863 6.12638 -4.5413 7.28556 -7.29162 1.94089 5.76648 -6.54383 -1.22644 5.21541e-06 -50.4148 0 -5.93141 8.64215 0.894397 4.47035e-06 -39.8879 7.15256e-05 14.014 -9.29801 10.4897 -7.11481 -7.72327 1.51451 -4.96658 -5.92728 -2.39015 -1.49012e-06 -51.8101 0 -0.163445 10.4363 0.0296078 0 -39.2817 0 -2.50356 -19.9449 -2.19754 1.86265e-06 6.10541 -6.10547 0.281213 -3.78744 -0.297539 2.98023e-06 33.3591 -2.38419e-05 -21.6114 1.23797e-05 -2.05783 18.6436 1.78814e-05 -2.38419e-05 -47.8472 33.2921 -0.0911077 22.9334 1.19209e-05 -2.38419e-05 4.93906e-05 -3.4151e-06 -77.9386 23.7908 1.19209e-05 1.63913e-05 -3.30675 -0.0284219 -3.23195 0.0062 0.0497 0.0339 0 0 0 0 0.0215 0 0 0 0 0 0.022 0 0 0 0 0 0.017 0 0 0 0 -0.0068 0.0873 0.0207 0 0 0 0 0.0267 0 0 0 0 0 0.0213 0 0 0 0 0 0.018 0 0 0 0 -0.0067 0.0922 0.0055 0 0 0 0 0.0266 0 0 0 0 0 0.0228 0 0 0 0 0 0.015 0 0 0 0 -0.0067 0.0925 -0.0113 0 0 0 0 0.0247 0 0 0 0 0 0.0221 0 0 0 0 0 0.018 0 0 0 0 -0.0066 0.0935 -0.0272 0 0 0 0 0.0163 0 0 0 0 0 0.0171 0 0 0 0 0 0.018 0 0 0 0 2.98023e-06 33.3591 -2.38419e-05 21.0025 -2.77476e-06 2.1208 -18.0902 -1.19209e-05 -2.38419e-05 46.2562 43.5086 8.6231 -23.2315 0 7.15256e-05 4.73455e-05 5.12264e-06 77.3485 -24.0498 1.19209e-05 8.9407e-06 20.1989 0.435953 8.56066 -0.0062 0.0497 0.0339 0 0 0 0 0.0215 0 0 0 0 0 0.022 0 0 0 0 0 0.017 0 0 0 0 0.0068 0.0873 0.0207 0 0 0 0 0.0267 0 0 0 0 0 0.0213 0 0 0 0 0 0.018 0 0 0 0 0.0067 0.0922 0.0055 0 0 0 0 0.0266 0 0 0 0 0 0.0228 0 0 0 0 0 0.015 0 0 0 0 0.0067 0.0925 -0.0113 0 0 0 0 0.0247 0 0 0 0 0 0.0221 0 0 0 0 0 0.018 0 0 0 0 0.0066 0.0935 -0.0272 0 0 0 0 0.0163 0 0 0 0 0 0.0171 0 0 0 0 0 0.018 0 0 0 0 2.98023e-06 33.3591 -2.38419e-05 3.52663 5.21703 -0.321074 1.49012e-06 23.974 2.38419e-05 9.60495e-06 -1.06722e-05 8.53774e-07 
24.3529 29.8732 -231.863 -0.0592844 6.09909 -4.57284 7.29234 -7.30068 1.93732 5.76637 -6.50386 -1.18362 0 -50.403 -7.15256e-05 -5.93209 8.61955 0.892178 -8.9407e-06 -39.9859 4.76837e-05 14.0251 -9.39854 10.5182 -7.12093 -7.72016 1.52073 -4.95559 -5.86343 -2.33604 -3.72529e-06 -51.8155 -2.38419e-05 -0.156068 10.408 0.0281962 0 -39.2916 -7.15256e-05 -2.57991 -19.946 -2.26713 2.98023e-06 6.10485 -6.10485 0.293948 -3.77596 -0.305783 -3.72529e-06 33.3591 0 -21.6194 1.23797e-05 -2.05707 18.6493 0 -7.15256e-05 -47.6773 32.1133 0.286173 22.86 1.19209e-05 -4.76837e-05 9.21043e-06 -1.19528e-05 -77.5234 23.2299 1.78814e-05 1.19209e-05 -4.17182 -0.0133181 -4.26155 0.0062 0.0497 0.0339 0 0 0 0 0.0215 0 0 0 0 0 0.022 0 0 0 0 0 0.017 0 0 0 0 -0.0068 0.0873 0.0207 0 0 0 0 0.0267 0 0 0 0 0 0.0213 0 0 0 0 0 0.018 0 0 0 0 -0.0067 0.0922 0.0055 0 0 0 0 0.0266 0 0 0 0 0 0.0228 0 0 0 0 0 0.015 0 0 0 0 -0.0067 0.0925 -0.0113 0 0 0 0 0.0247 0 0 0 0 0 0.0221 0 0 0 0 0 0.018 0 0 0 0 -0.0066 0.0935 -0.0272 0 0 0 0 0.0163 0 0 0 0 0 0.0171 0 0 0 0 0 0.018 0 0 0 0 -3.72529e-06 33.3591 0 20.9596 -1.01386e-06 2.11959 -18.0995 1.78814e-05 2.38419e-05 46.4937 43.2954 8.43897 -23.2517 0 0 -2.84425e-05 1.70755e-05 77.0102 -23.5127 2.38419e-05 2.98023e-06 18.4045 0.537854 10.523 -0.0062 0.0497 0.0339 0 0 0 0 0.0215 0 0 0 0 0 0.022 0 0 0 0 0 0.017 0 0 0 0 0.0068 0.0873 0.0207 0 0 0 0 0.0267 0 0 0 0 0 0.0213 0 0 0 0 0 0.018 0 0 0 0 0.0067 0.0922 0.0055 0 0 0 0 0.0266 0 0 0 0 0 0.0228 0 0 0 0 0 0.015 0 0 0 0 0.0067 0.0925 -0.0113 0 0 0 0 0.0247 0 0 0 0 0 0.0221 0 0 0 0 0 0.018 0 0 0 0 0.0066 0.0935 -0.0272 0 0 0 0 0.0163 0 0 0 0 0 0.0171 0 0 0 0 0 0.018 0 0 0 0 -3.72529e-06 33.3591 0 3.4546 5.27916 -0.318232 -2.23517e-06 23.9644 -4.76837e-05 9.07134e-06 -1.02453e-05 -1.70755e-06 
